<?xml version="1.0" encoding="UTF-8"?>
<svg width="265px" height="71px" viewBox="0 0 265 71" version="1.1" xmlns="http://www.w3.org/2000/svg" xmlns:xlink="http://www.w3.org/1999/xlink">
    <!-- Generator: Sketch 46.2 (44496) - http://www.bohemiancoding.com/sketch -->
    <title>Checkly</title>
    <desc>Created with Sketch.</desc>
    <defs></defs>
    <g id="Page-1" stroke="none" stroke-width="1" fill="none" fill-rule="evenodd">
        <path d="M233.480791,36.7110423 C233.929495,35.5994494 234.40409,34.4749187 234.904587,33.3374258 C235.490846,32.005018 236.068214,30.7525735 236.636708,29.5800546 C236.849894,28.9404989 237.089723,28.3720134 237.356205,27.8745812 C237.622687,27.3771489 237.898047,26.8264286 238.182294,26.2224037 C238.253355,26.151342 238.502068,26.0802813 238.928438,26.0092196 C239.354809,25.9381578 239.878881,25.8759797 240.500672,25.8226834 C241.122462,25.7693871 241.788656,25.7516219 242.499273,25.7693874 C243.209891,25.7871528 243.884967,25.8493309 244.524523,25.9559235 C245.164079,26.0625161 245.723682,26.2135201 246.203349,26.4089399 C246.683015,26.6043597 246.993906,26.8619547 247.136029,27.1817326 C246.851782,27.7146957 246.407653,28.5141284 245.803628,29.5800546 C245.199603,30.6459809 244.577822,31.8184821 243.938267,33.0975936 C243.298711,34.3767051 242.703578,35.7002103 242.152849,37.068149 C241.602121,38.4360877 241.2557,39.6707671 241.113576,40.7722242 C240.86486,42.3355827 240.838212,43.4192581 241.033632,44.023283 C241.229052,44.6273078 241.557708,44.8937854 242.019609,44.8227237 C242.48151,44.7516619 243.032231,44.3963585 243.671786,43.7568027 C244.311342,43.117247 244.950888,42.3355795 245.590444,41.4117767 C246.762963,39.0312081 247.740047,37.0503916 248.521727,35.4692677 C249.303406,33.8881437 249.978482,32.5468733 250.546976,31.4454162 C251.11547,30.3439591 251.586247,29.4290528 251.959321,28.7006699 C252.332396,27.9722869 252.714347,27.2705627 253.105186,26.5954761 C253.63815,26.4178217 254.286578,26.2757003 255.050492,26.1691077 C255.814406,26.0625151 256.587191,26.0358673 257.36887,26.0891636 C258.150549,26.1424599 258.887804,26.2668161 259.580656,26.462236 C260.273508,26.6576558 260.779815,26.9685463 261.099593,27.3949168 L259.873784,30.2196072 C259.376352,31.392126 258.834514,32.6712183 258.248255,34.0569225 C257.661995,35.4426266 257.05798,36.8460751 256.436189,38.2673101 C255.814399,39.688545 255.219266,41.083111 254.650772,42.4510496 C254.082278,43.8189883 253.567088,45.0714329 253.105186,46.2084208 C253.460495,45.9241738 253.824681,45.5688704 254.197755,45.1424999 C254.57083,44.7161294 255.006076,44.1298788 255.503509,43.3837304 C256.000941,42.6375821 256.622722,41.6782628 257.36887,40.505744 C258.115018,39.3332251 259.038807,37.8409507 260.140264,36.0288761 C260.708758,35.0695425 261.321657,34.5010571 261.978978,34.3234027 C262.636299,34.1457483 263.204785,34.1901612 263.684452,34.4566428 C264.164118,34.7231244 264.492774,35.1317233 264.670428,35.6824518 C264.848083,36.2331804 264.741492,36.7750181 264.350652,37.3079812 C263.568973,38.7292162 262.680714,40.2659035 261.68585,41.9180892 C260.690985,43.5702748 259.616192,45.1247273 258.461439,46.5814932 C257.306686,48.038259 256.098654,49.2995862 254.837308,50.3655124 C253.575962,51.4314386 252.305752,52.08875 251.026641,52.3374661 C250.706863,53.6521084 250.253851,55.0555569 249.667592,56.5478537 C249.081332,58.0401504 248.432903,59.5146596 247.722286,60.9714255 C247.011668,62.4281913 246.274414,63.8316398 245.5105,65.1818131 C244.746586,66.5319863 244.027097,67.7222528 243.35201,68.7526481 C242.854578,69.5343274 242.197267,70.1028128 241.380056,70.4581216 C240.562846,70.8134303 239.736766,70.9733169 238.90179,70.937786 C238.066815,70.9022551 237.276265,70.6801905 236.530116,70.2715854 C235.783968,69.8629804 235.233248,69.250082 234.877939,68.4328719 C234.558161,67.5090691 234.478218,66.5763976 234.638107,65.6348295 C234.797996,64.6932613 235.126651,63.7517072 235.624084,62.810139 C236.121516,61.8685709 236.734414,60.9270168 237.462797,59.9854486 C238.19118,59.0438804 238.9462,58.111209 239.727879,57.1874062 C240.296373,56.5123196 240.838211,55.8638909 241.353408,55.2421006 C241.868606,54.6203103 242.348266,53.9896467 242.792402,53.350091 C243.236538,52.7105352 243.636254,52.0354587 243.991563,51.3248412 C244.346871,50.6142237 244.631114,49.8503214 244.844299,49.0331113 C244.240275,49.6016053 243.618494,50.1167952 242.978938,50.5786966 C242.339382,51.040598 241.664306,51.4225491 240.953688,51.7245616 C240.243071,52.026574 239.488051,52.2131083 238.688606,52.28417 C237.889161,52.3552318 237.045316,52.2664059 236.157044,52.0176898 C234.273908,51.5202576 232.94152,50.5875861 232.159841,49.2196474 C231.938714,48.8326751 231.755972,48.4222471 231.611617,47.9883622 C231.063476,48.7412937 230.455665,49.4270792 229.788167,50.0457361 C229.059784,50.7208227 228.251468,51.2804256 227.363196,51.7245616 C226.474925,52.1686975 225.480075,52.3907621 224.378618,52.3907621 C222.531012,52.142046 221.154212,51.4314392 220.248174,50.2589203 C219.590517,49.4078344 219.101347,48.4491175 218.780658,47.382754 C218.515291,47.7131337 218.249436,48.0323031 217.983092,48.3402627 C216.846104,49.654905 215.682486,50.6852849 214.492201,51.4314333 C213.301917,52.1775817 212.085003,52.5506503 210.841422,52.5506503 C210.237397,52.5506503 209.437965,52.3285856 208.4431,51.8844497 C207.448236,51.4403138 206.373443,50.8629457 205.21869,50.1523282 C204.063936,49.4417107 202.926965,48.642278 201.807743,47.7540062 C200.68852,46.8657343 199.720318,45.9774758 198.903108,45.0892039 C198.512268,46.2261919 198.210261,47.59411 197.997075,49.1929994 C197.78389,50.7918888 197.926011,52.8348834 198.423444,55.3220446 C197.03774,55.0377976 195.874121,54.6736116 194.932553,54.2294757 C193.990985,53.7853398 193.209317,53.3234453 192.587527,52.8437785 C191.965736,52.3641117 191.486077,51.9022173 191.148533,51.4580813 C190.81099,51.0139454 190.588926,50.6497594 190.482333,50.3655124 C190.251976,49.7098813 190.090107,48.9990242 189.996726,48.2329351 C189.528791,48.7508001 189.051108,49.2484746 188.563675,49.7259599 C187.675403,50.54317 186.556198,51.1915987 185.206024,51.6712655 C183.855851,52.1509323 182.399107,52.3907621 180.835749,52.3907621 C179.769822,52.3907621 178.721677,52.2397582 177.691282,51.9377457 C176.660887,51.6357333 175.701567,51.2093692 174.813296,50.6586406 C173.925024,50.1079121 173.143356,49.4417182 172.46827,48.6600389 C172.089683,48.2216756 171.76697,47.7497939 171.500128,47.244389 C171.291967,47.4726548 171.081721,47.6958232 170.869388,47.9138943 C169.554746,49.2640675 168.12465,50.347743 166.579056,51.1649531 C165.033463,51.9821632 163.319124,52.3907621 161.435988,52.3907621 C160.583247,52.3907621 159.677223,52.2752885 158.71789,52.0443378 C157.758556,51.8133871 156.852532,51.4758489 155.999791,51.031713 C155.14705,50.587577 154.383148,50.0279742 153.708061,49.3528875 C153.208099,48.852925 152.815323,48.2945057 152.529728,47.67762 C152.163984,48.1378527 151.792853,48.5719173 151.416331,48.9798152 C150.13722,50.3655193 148.760419,51.3958992 147.285888,52.0709859 C145.811357,52.7460725 144.132548,52.9237242 142.249412,52.6039463 C141.467732,52.4618228 140.819304,52.2397582 140.304106,51.9377457 C139.788908,51.6357333 139.371427,51.2981951 139.051649,50.9251209 C138.731871,50.5520467 138.492041,50.1434478 138.332152,49.6993118 C138.172263,49.2551759 138.074555,48.802164 138.039024,48.3402627 C137.967962,47.4519908 138.03014,46.483789 138.22556,45.4356282 C138.42098,44.3874674 138.678575,43.3304397 138.998353,42.2645135 C139.318131,41.1985872 139.673434,40.1593247 140.064274,39.1466948 C140.455113,38.1340649 140.810417,37.2191586 141.130195,36.4019485 C141.414442,35.5847383 141.627624,34.9363096 141.769747,34.4566428 C141.911871,33.976976 141.929636,33.6483203 141.823043,33.4706659 C141.716451,33.2930116 141.458856,33.2485986 141.050251,33.3374258 C140.641646,33.426253 140.046512,33.6305525 139.264833,33.9503304 C138.376561,34.34117 137.577129,34.9451858 136.866511,35.7623959 C136.155894,36.579606 135.534113,37.5478078 135.001149,38.6670304 C134.468186,39.7862529 134.015174,40.9765194 133.6421,42.2378654 C133.269026,43.4992115 132.984783,44.7605386 132.789364,46.0218847 C132.593944,47.2832307 132.47847,48.4912624 132.442939,49.6460158 C132.407408,50.8007692 132.442939,51.7867362 132.549531,52.6039463 C131.092765,52.1775758 129.893616,51.8222724 128.952048,51.5380254 C128.01048,51.2537784 127.246578,50.9606531 126.660318,50.6586406 C126.074059,50.3566282 125.647695,50.0279726 125.381213,49.6726638 C125.114732,49.3173551 124.910432,48.8554606 124.768309,48.2869666 C124.831931,47.459875 124.941834,46.5776079 125.098018,45.6401596 C124.606847,46.1967696 124.088341,46.7414962 123.5425,47.2743418 C122.050203,48.7311076 120.415807,50.0101999 118.639263,51.111657 C116.86272,52.2131142 114.979612,53.0836075 112.989883,53.7231633 C111.000154,54.362719 108.992689,54.6824921 106.967429,54.6824921 C104.835577,54.6824921 102.685991,54.2916583 100.518608,53.5099791 C98.3512246,52.7282998 96.4059384,51.5913289 94.682691,50.0990322 C92.9594436,48.6067354 91.5648776,46.7858054 90.4989514,44.6361875 C89.4330252,42.4865696 88.9356004,40.0260934 89.0066621,37.2546852 C89.0777239,35.5847341 89.4419099,33.8526299 90.0992311,32.0583207 C90.7565522,30.2640116 91.6448108,28.4874945 92.7640333,26.7287162 C93.8832559,24.9699379 95.1978785,23.2467163 96.7079407,21.5589998 C98.2180029,19.8712832 99.8346334,18.290183 101.557881,16.8156517 C103.281128,15.3411204 105.084293,14.0087326 106.967429,12.8184483 C108.850566,11.628164 110.751439,10.6244318 112.670106,9.80722171 C114.766428,8.99001159 116.853836,8.4392913 118.932392,8.1550443 C121.010948,7.8707973 122.867408,7.97738832 124.501828,8.47482057 C126.136249,8.97225282 127.450871,9.9582198 128.445736,11.4327511 C129.4406,12.9072824 129.92026,14.99469 129.884729,17.6950365 C129.849198,19.4715802 129.360656,21.1770366 128.419088,22.8114568 C127.47752,24.4458771 126.322784,25.8937385 124.954845,27.1550845 C123.586906,28.4164306 122.112397,29.4201628 120.531273,30.1663111 C118.950149,30.9124595 117.520053,31.2855281 116.240941,31.2855281 C115.672447,31.2855281 115.006254,31.1078764 114.24234,30.7525676 C113.478426,30.3972589 112.705641,29.9175993 111.923962,29.3135744 C113.736036,28.2476482 115.334902,26.9507907 116.720606,25.4229631 C118.10631,23.8951355 119.118925,22.4206263 119.75848,20.9993913 C120.575691,18.7964771 120.77999,17.2953201 120.371385,16.4958754 C119.96278,15.6964308 119.198878,15.3588925 118.079655,15.4832506 C116.960432,15.6076086 115.610279,16.0961508 114.029156,16.9488918 C112.448032,17.8016328 110.911344,18.7875998 109.419048,19.9068223 C107.926751,21.0260449 106.594363,22.180781 105.421844,23.3710653 C104.249325,24.5613496 103.503188,25.5473166 103.18341,26.3289958 C102.117484,27.6436382 101.238108,29.0737345 100.545256,30.6193275 C99.8524039,32.1649206 99.3816269,33.7104904 99.1329108,35.2560835 C98.8841947,36.8016765 98.8664295,38.3028335 99.0796147,39.7595993 C99.2928,41.2163652 99.7902248,42.5132227 100.571904,43.6502107 C101.353583,44.7871986 102.437259,45.7021049 103.822963,46.394957 C105.208667,47.0878091 106.931888,47.4697602 108.992679,47.540822 C110.520507,47.6118837 112.190433,47.1944022 114.002508,46.2883649 C115.814582,45.3823276 117.679925,44.2098263 119.598592,42.7708259 C121.51726,41.3318255 123.435898,39.7151949 125.354565,37.9208858 C126.145639,37.1810857 126.918587,36.4488401 127.673415,35.7241453 C127.811648,35.2954998 127.953613,34.8641164 128.099312,34.4299948 C128.969818,31.8362409 129.929137,29.242526 130.977298,26.6487721 C132.025459,24.0550183 133.091369,21.638955 134.175061,19.4005099 C135.258752,17.1620648 136.31578,15.1990134 137.346175,13.5112969 C138.376571,11.8235803 139.282595,10.6066661 140.064274,9.86051776 C140.419583,9.54073988 141.094659,9.36308817 142.089524,9.3275573 C143.084388,9.29202643 144.070355,9.37196969 145.047454,9.56738951 C146.024553,9.76280932 146.859516,10.0470521 147.552368,10.4201262 C148.24522,10.7932004 148.467285,11.2106819 148.218569,11.6725833 C147.86326,12.3121391 147.392483,13.1115717 146.806224,14.0709054 C146.219964,15.030239 145.598183,16.0695015 144.940862,17.188724 C144.283541,18.3079466 143.599582,19.4626827 142.888964,20.652967 C142.178347,21.8432513 141.521035,22.9891048 140.917011,24.0905619 C140.312986,25.192019 139.780031,26.1957512 139.318129,27.1017885 C138.856228,28.0078258 138.536455,28.7450804 138.3588,29.3135744 C140.170875,27.4659689 141.920744,26.284585 143.608461,25.7693874 C145.296177,25.2541897 146.690743,25.3607807 147.7922,26.0891636 C148.893658,26.8175466 149.595382,28.1321692 149.897394,30.033071 C150.199407,31.9339728 149.888516,34.3411535 148.964713,37.2546852 C148.43175,38.8891054 148.058682,40.1149022 147.845496,40.9321123 C147.632311,41.7493224 147.472425,42.4066338 147.365832,42.904066 C147.223709,43.6502144 147.205943,44.129874 147.312536,44.3430592 C147.419129,44.5562445 147.614545,44.5828923 147.898792,44.4230033 C148.183039,44.2631144 148.52946,43.9699891 148.938065,43.5436186 C149.34667,43.1172481 149.764152,42.6020581 150.190522,41.9980332 C150.616893,41.4650701 151.043257,40.9054672 151.469628,40.3192078 C151.777816,39.8954483 152.072079,39.4902568 152.35242,39.1036272 C152.368771,39.0557208 152.385401,39.007898 152.402308,38.9601586 C152.704321,38.1074177 153.050742,37.2902198 153.441581,36.5085405 C154.18773,35.0517747 155.075988,33.6927391 156.106384,32.4313931 C157.136779,31.170047 158.255985,30.0686064 159.464034,29.1270382 C160.672084,28.1854701 161.915646,27.4393329 163.194758,26.8886043 C164.473869,26.3378758 165.717431,26.0625156 166.925481,26.0625156 C169.057333,26.0625156 170.594021,26.4267016 171.535589,27.1550845 C172.477157,27.8834675 172.956816,28.8161389 172.974582,29.9531269 C172.992347,31.0901149 172.628161,32.3514421 171.882013,33.7371462 C171.135865,35.1228503 170.176545,36.4907684 169.004027,37.8409417 C167.831508,39.1911149 166.49912,40.4257943 165.006823,41.5450169 C163.514526,42.6642394 162.040017,43.5258502 160.583251,44.1298751 C160.618782,45.0892087 160.796434,45.7998155 161.116212,46.2617169 C161.43599,46.7236183 161.853471,47.007861 162.368669,47.1144536 C162.883867,47.2210462 163.470117,47.1766333 164.127438,46.9812135 C164.78476,46.7857937 165.433188,46.4749032 166.072744,46.0485327 C166.7123,45.693224 167.378494,45.1336211 168.071346,44.3697073 C168.764198,43.6057935 169.465922,42.7708304 170.17654,41.8647931 C170.274946,41.7393251 170.372841,41.613176 170.470225,41.4863457 C170.630484,39.9426267 171.030014,38.4343789 171.668829,36.9615569 C172.308385,35.4870256 173.15223,34.0924597 174.200391,32.7778174 C175.248552,31.463175 176.41217,30.3084389 177.691282,29.3135744 C178.970393,28.3187099 180.329429,27.5281598 181.768429,26.9419004 C183.20743,26.3556409 184.637526,26.0625156 186.058761,26.0625156 C186.698317,26.0625156 187.364511,26.1424589 188.057363,26.3023478 C188.750215,26.4622368 189.398644,26.7109491 190.002669,27.0484925 C190.606693,27.3860358 191.113001,27.8123999 191.521606,28.3275976 C191.930211,28.8427952 192.170041,29.4556936 192.241102,30.1663111 C192.276633,30.8769286 192.170042,31.6497135 191.921326,32.4846891 C191.67261,33.3196647 191.36172,34.1279799 190.988645,34.9096592 C190.615571,35.6913384 190.23362,36.4019453 189.84278,37.041501 C189.451941,37.6810567 189.149933,38.1784815 188.936748,38.5337903 C188.61697,38.8535682 188.119545,39.1822238 187.444458,39.5197671 C186.769372,39.8573104 185.969939,40.0260796 185.046136,40.0260796 C184.477642,40.0260796 183.891392,39.9106059 183.287367,39.6796553 C182.683342,39.4487046 182.177035,39.1111663 181.768429,38.6670304 C181.359824,38.2228945 181.111112,37.6810567 181.022285,37.041501 C180.933458,36.4019453 181.155522,35.6913384 181.688485,34.9096592 C182.29251,34.1279799 182.949822,33.6216726 183.660439,33.3907219 C184.371057,33.1597712 185.063898,32.9554717 185.738985,32.7778174 C185.738985,32.6356939 185.79228,32.4580421 185.898873,32.2448569 C186.005466,32.0316717 186.085409,31.8007244 186.138705,31.5520083 C186.192002,31.3032922 186.200884,31.0812275 186.165353,30.8858077 C186.129822,30.6903879 185.987701,30.539384 185.738985,30.4327914 L185.792281,30.4327914 C185.188256,30.1130135 184.51318,30.1929567 183.767031,30.6726236 C183.020883,31.1522904 182.301393,31.8717798 181.608541,32.8311134 C180.915689,33.790447 180.293908,34.9185354 179.74318,36.2154123 C179.192451,37.5122892 178.819383,38.8180293 178.623963,40.1326716 C178.428543,41.447314 178.464073,42.690876 178.730555,43.8633948 C178.997036,45.0359137 179.609935,45.9952329 180.569268,46.7413813 L180.515972,46.7413813 C181.439775,47.3098753 182.203677,47.5497051 182.807702,47.4608779 C183.411727,47.3720507 184.140099,47.0789254 184.99284,46.5814932 C185.561334,46.2261844 186.16535,45.6932293 186.804906,44.9826118 C187.444462,44.2719943 188.110655,43.463679 188.803507,42.5576417 C189.49636,41.6516044 190.198084,40.6656374 190.908701,39.5997112 C190.92526,39.5748733 190.941818,39.5500162 190.958377,39.5251398 C191.434503,37.7242447 192.039727,35.8659899 192.774063,33.9503304 C193.591273,31.8184779 194.479532,29.7133051 195.438865,27.634749 C196.398199,25.5561928 197.393048,23.5576111 198.423444,21.6389438 C199.453839,19.7202766 200.430923,17.9704073 201.354726,16.3892833 C202.278529,14.8081594 203.104609,13.4402413 203.832992,12.2854878 C204.561375,11.1307344 205.120978,10.304654 205.511818,9.80722171 C205.938188,9.45191296 206.497791,9.22984833 207.190643,9.14102114 C207.883495,9.05219395 208.594102,9.06995912 209.322485,9.19431719 C210.050868,9.31867525 210.725944,9.54962247 211.347735,9.88716578 C211.969525,10.2247091 212.422537,10.6066603 212.706784,11.0330308 C212.56466,11.5659939 212.271535,12.3387788 211.827399,13.3514087 C211.383263,14.3640387 210.841426,15.492127 210.20187,16.7357076 C209.562314,17.9792883 208.887238,19.2672631 208.17662,20.5996709 C207.466003,21.9320787 206.799809,23.1845233 206.178018,24.3570422 C205.556228,25.529561 205.023273,26.5421758 204.579137,27.3949168 C204.135001,28.2476577 203.859641,28.8161432 203.753048,29.1003902 C204.783444,28.318711 205.893767,27.6436345 207.084051,27.0751405 C208.274335,26.5066465 209.52678,26.2224037 210.841422,26.2224037 C212.617966,26.2224037 214.065827,26.6754156 215.18505,27.5814529 C216.304273,28.4874902 216.952701,29.7754651 217.130356,31.4454162 C217.236948,32.937713 216.943823,34.3855744 216.250971,35.7890439 C215.558119,37.1925135 214.581034,38.4538406 213.319688,39.5730632 C212.058342,40.6922857 210.583833,41.607192 208.896117,42.3178095 C207.2084,43.028427 205.405235,43.4547911 203.486568,43.5969146 L206.684331,45.5955163 C207.679195,46.2173066 208.745106,46.4393713 209.882094,46.2617169 C211.161205,46.0840625 212.307059,45.6843462 213.319688,45.0625559 C214.332318,44.4407656 215.26499,43.6857458 216.117731,42.7974739 C216.970472,41.9092021 217.761022,40.9232351 218.489405,39.8395434 C218.573936,39.7137775 218.658347,39.5878922 218.742639,39.4618875 C218.965412,38.3371584 219.24519,37.281653 219.581974,36.2953564 C220.754493,33.3818246 221.891464,30.6193406 222.992921,28.0078213 C224.094378,25.396302 225.160288,23.0068865 226.190683,20.8395031 C227.221079,18.6721198 228.180398,16.7445987 229.06867,15.0568822 C229.956942,13.3691657 230.77414,11.9568346 231.520288,10.8198466 C231.733473,10.5711305 232.301959,10.366831 233.225761,10.2069421 C234.149564,10.0470531 235.135531,9.96710985 236.183692,9.96710985 C237.231853,9.96710985 238.200055,10.0470531 239.088326,10.2069421 C239.976598,10.366831 240.491788,10.6421911 240.633912,11.0330308 C240.527319,11.4594013 240.314137,12.0278867 239.994359,12.7385042 C239.674581,13.4491217 239.283748,14.2663196 238.821846,15.1901223 C238.359945,16.1139251 237.844755,17.1176572 237.276261,18.2013489 C236.707767,19.2850406 236.103751,20.4131289 235.464195,21.5856478 C232.337478,27.5548347 229.512816,33.8259401 226.990124,40.3991519 C226.705877,41.0387076 226.492695,41.7404319 226.350572,42.5043457 C226.208448,43.2682595 226.190683,43.8811579 226.297276,44.3430592 C226.403868,44.8049606 226.652581,45.0181427 227.04342,44.9826118 C227.43426,44.9470809 228.038276,44.4496561 228.855486,43.4903225 C229.281856,42.9573594 229.752633,42.344461 230.267831,41.6516089 C230.783029,40.9587569 231.271571,40.2481501 231.733472,39.5197671 C232.195374,38.7913842 232.63062,38.0985425 233.039225,37.4412213 C233.201902,37.1795239 233.349091,36.9361313 233.480791,36.7110423 Z M160.316771,38.9601586 C160.814203,38.6759116 161.382689,38.3117256 162.022245,37.8675897 C162.6618,37.4234538 163.336877,36.8460857 164.047494,36.1354682 C164.758112,35.4959125 165.344362,34.7675405 165.806264,33.9503304 C166.268165,33.1331202 166.570173,32.4402786 166.712297,31.8717846 C166.85442,31.3032906 166.792242,30.9568698 166.52576,30.8325117 C166.259279,30.7081536 165.770737,31.001279 165.060119,31.7118964 C164.598218,32.1737978 164.127441,32.7334007 163.647774,33.3907219 C163.168107,34.0480431 162.715095,34.7053544 162.288725,35.3626756 C161.862354,36.0199967 161.471521,36.6417777 161.116212,37.2280372 C160.760903,37.8142966 160.494425,38.2673085 160.316771,38.5870863 L160.316771,38.9601586 Z M206.311258,33.3640739 C205.884888,33.7549135 205.422994,34.2434557 204.925561,34.8297151 C204.428129,35.4159745 203.930704,36.0555207 203.433272,36.7483728 C202.93584,37.4412248 202.45618,38.1695968 201.994279,38.9335106 C201.532377,39.6974244 201.123778,40.4524442 200.76847,41.1985926 C202.260766,40.9854073 203.513211,40.6301039 204.525841,40.1326716 C205.538471,39.6352394 206.355669,39.0578713 206.977459,38.4005502 C207.599249,37.743229 208.034496,37.0681525 208.283212,36.3753004 C208.531928,35.6824484 208.638519,35.0517848 208.602988,34.4832908 C208.496396,33.3463028 208.265449,32.7067567 207.91014,32.5646332 C207.554831,32.4225097 207.021876,32.6889872 206.311258,33.3640739 Z" id="Checkly" fill="#45C8F1"></path>
        <g id="Fat-Raccoon_Final" transform="translate(0.000000, 1.000000)">
            <path d="M63.9492136,13.3755705 C63.7547745,12.9765101 63.4714659,12.6118792 63.0489881,12.3791275 C62.5839644,12.1244295 62.0757982,12.0813423 61.5998398,12.1661074 L61.5660415,12.1479866 C54.4113561,13.3844295 47.192454,18.8359732 42.8378516,27.1918792 C38.1464599,36.195906 38.0786647,46.0826174 41.9002493,52.8483221 C49.5774154,52.223557 57.5929614,46.5879866 62.2843531,37.5839597 C66.6566499,29.2010738 67.0079525,20.0599329 63.9492136,13.3755705" id="Fill-4" fill="#828D8C"></path>
            <path d="M61.551727,13.0884564 C54.5022136,14.3756376 47.6540979,19.9298658 43.6452315,27.6233557 C39.4011691,35.768255 38.9377359,45.2053691 42.4100059,51.8697987 C49.8018754,51.0106711 57.2347003,45.2973826 61.4769733,37.1526846 C65.5337537,29.3744295 66.1631958,20.4136913 63.120362,13.763557 C62.9919288,13.5018121 62.8227389,13.3069128 62.6123947,13.1913423 C62.3698427,13.0560403 62.0561157,13.0197987 61.7584926,13.0759732 C61.6873175,13.0866443 61.6159436,13.0957047 61.551727,13.0884564 Z M41.9002493,53.7724832 C41.5741958,53.7724832 41.2710059,53.5957047 41.1087745,53.3067785 C36.9665045,45.9742953 37.3191988,35.8024832 42.0304718,26.760604 C46.3956113,18.382953 53.6411543,12.5794631 61.4127567,11.2365101 C61.4859199,11.2220134 61.5624629,11.2202013 61.6374154,11.2274497 C62.2807745,11.1497315 62.927911,11.2634899 63.4822018,11.5667114 C64.0311246,11.8681208 64.462549,12.3392617 64.7673294,12.9674497 C68.0541068,20.1483221 67.4089585,29.7390604 63.0917329,38.0156376 C58.3808576,47.0555034 50.2885697,53.093557 41.9734125,53.7688591 C41.948362,53.7706711 41.9251009,53.7724832 41.9002493,53.7724832 L41.9002493,53.7724832 Z" id="Fill-5" fill="#121716"></path>
            <path d="M60.6000089,17.2981208 C62.592911,18.3865772 64.3627448,19.7025503 65.8510593,21.142953 C65.6409139,18.3487248 65.0168398,15.7077181 63.9492136,13.3755705 C63.7547745,12.9765101 63.4714659,12.6118792 63.0489881,12.3791275 C62.5839644,12.1244295 62.0757982,12.0813423 61.5998398,12.1661074 L61.5660415,12.1479866 C59.0991691,12.5758389 56.6322967,13.5362416 54.2686083,14.9079866 C56.3631039,15.3738926 58.5162493,16.1607383 60.6000089,17.2981208" id="Fill-6" fill="#121716"></path>
            <path d="M49.4116053,19.3342953 C47.5079703,21.2297315 45.6916142,23.3740268 44.0213858,25.7641611 C47.5471365,25.5185235 51.4418843,26.3832886 54.9710148,28.4788591 C58.4806617,30.5585235 61.1169228,33.562349 62.6282997,36.7789933 C63.8601454,34.1001342 64.7959585,31.4142282 65.4733145,28.7822819 C63.6390653,26.3687919 61.2682196,24.2261074 58.4110772,22.529396 C55.5020445,20.8000671 52.4399258,19.7601342 49.4116053,19.3342953" id="Fill-7" fill="#121716"></path>
            <path d="M40.319089,30.6849664 C39.1142819,33.045906 38.0999377,35.4072483 37.2748635,37.7466443 C40.5598516,37.6671141 44.0231751,38.5244295 47.1336053,40.4504698 C50.2778338,42.3857718 51.6824481,45.33 53.1154926,48.3589933 C55.9477834,46.9743624 57.3327151,44.3244966 58.8405134,42.1365101 C57.0279347,38.9397987 54.416724,36.1111409 51.0086706,34.0099329 C47.609365,31.9087248 43.9430534,30.8601342 40.319089,30.6849664" id="Fill-8" fill="#121716"></path>
            <path d="M14.4576855,4.82637584 C17.4432611,7.84812081 18.2434837,11.9404027 16.2436231,13.9638926 C14.2455519,15.9873826 10.2046766,15.1787919 7.22089021,12.1552349 C4.23710386,9.13348993 3.43668249,5.04120805 5.43475371,3.01771812 C7.43302374,0.994228188 11.4737003,1.80463087 14.4576855,4.82637584" id="Fill-9" fill="#828D8C"></path>
            <path d="M12.4790979,6.83194631 C13.9781484,8.34463087 14.4556973,10.3212081 13.552092,11.234698 C12.6431187,12.1534228 10.6947507,11.6695973 9.19768843,10.1532886 C7.70221662,8.63697987 7.22446884,6.66583893 8.1298635,5.74872483 C9.03724629,4.83 10.9818368,5.31563758 12.4790979,6.83194631" id="Fill-10" fill="#121716"></path>
            <path d="M8.35452226,2.82825503 C7.69664985,2.82825503 6.76799407,2.97442953 6.08010089,3.67107383 C4.46872107,5.30295302 5.2868368,8.88986577 7.86603858,11.5018792 C9.50584866,13.1625503 11.5450742,14.153557 13.3222641,14.153557 C13.9799377,14.153557 14.9103828,14.0073826 15.5984748,13.3105369 C16.3434273,12.5561074 16.6018843,11.3627517 16.3257329,9.94932886 C16.022543,8.40060403 15.1296736,6.8138255 13.8123383,5.47973154 C12.1725282,3.8190604 10.1333027,2.82825503 8.35452226,2.82825503 Z M13.3222641,16.0018792 C11.070905,16.0018792 8.54876261,14.8087248 6.57554303,12.8085906 C3.18359347,9.37348993 2.39927596,4.78489933 4.78960534,2.36416107 C5.68446291,1.45791946 6.91610979,0.979731544 8.35452226,0.979731544 C10.6056825,0.979731544 13.1278249,2.17288591 15.1028338,4.17302013 C16.6732582,5.7614094 17.7426736,7.68583893 18.1152493,9.59013423 C18.5144659,11.6281208 18.0778724,13.4134228 16.8889703,14.6174497 C15.9941128,15.5236913 14.7606766,16.0018792 13.3222641,16.0018792 L13.3222641,16.0018792 Z" id="Fill-11" fill="#121716"></path>
            <path d="M41.9002493,4.82637584 C38.9146736,7.84812081 38.1142522,11.9404027 40.1143116,13.9638926 C42.1123828,15.9873826 46.1532582,15.1787919 49.1370445,12.1552349 C52.1208309,9.13348993 52.9210534,5.04120805 50.9229822,3.01771812 C48.924911,0.994228188 44.8840356,1.80463087 41.9002493,4.82637584" id="Fill-12" fill="#828D8C"></path>
            <path d="M43.8788368,6.83194631 C42.3797864,8.34463087 41.9020386,10.3212081 42.8056439,11.234698 C43.7146172,12.1534228 45.6629852,11.6695973 47.1602463,10.1532886 C48.6557181,8.63697987 49.1334659,6.66583893 48.2280712,5.74872483 C47.3206884,4.83 45.3760979,5.31563758 43.8788368,6.83194631" id="Fill-13" fill="#121716"></path>
            <path d="M42.5455964,5.47973154 C41.2282611,6.8138255 40.3351929,8.40060403 40.0322018,9.94932886 C39.7558516,11.3627517 40.0143086,12.5561074 40.7594599,13.3105369 C41.4475519,14.0073826 42.377997,14.153557 43.0356706,14.153557 C44.8128605,14.153557 46.8518872,13.1625503 48.4918961,11.5018792 C51.0708991,8.88986577 51.8892136,5.30295302 50.2778338,3.67107383 C49.5897418,2.97442953 48.6610861,2.82825503 48.0034125,2.82825503 C46.2244332,2.82825503 44.1854065,3.8190604 42.5455964,5.47973154 Z M39.4689644,14.6174497 C38.2800623,13.4134228 37.84327,11.6281208 38.2426855,9.59013423 C38.6152611,7.68583893 39.6846766,5.7614094 41.2549021,4.17302013 C43.229911,2.17288591 45.7520534,0.979731544 48.0034125,0.979731544 C49.4418249,0.979731544 50.6734718,1.45791946 51.5681306,2.36416107 C53.9586588,4.78489933 53.1741424,9.37348993 49.7821929,12.8085906 C47.8089733,14.8087248 45.2870297,16.0018792 43.0356706,16.0018792 C41.5972582,16.0018792 40.363822,15.5236913 39.4689644,14.6174497 L39.4689644,14.6174497 Z" id="Fill-14" fill="#121716"></path>
            <path d="M48.3312552,12.3412752 C43.625549,5.76865772 36.3782166,0.979731544 28.1789674,0.979731544 C19.9797181,0.979731544 12.7321869,5.76865772 8.02648071,12.3412752 C2.30126113,20.3341611 -1.01573591,31.6651007 2.39032938,41.2502013 C5.27451039,49.3697315 12.1991691,55.5396644 20.3413591,57.8899329 C22.8867626,58.626443 25.5319703,58.9928859 28.1789674,58.9928859 C30.8257656,58.9928859 33.4709733,58.626443 36.0163769,57.8899329 C44.1585668,55.5396644 51.0834243,49.3697315 53.9676053,41.2502013 C57.3738694,31.6651007 54.0566736,20.3341611 48.3312552,12.3412752" id="Fill-15" fill="#828D8C"></path>
            <path d="M50.2758457,15.9785235 C49.9497923,14.6661745 49.1209407,13.4206711 48.3491484,12.3412752 C47.3652226,10.9657047 46.2637982,9.67671141 45.0713175,8.48536913 C40.8165193,6.41677852 35.9539496,6.42040268 32.2464837,8.95288591 C30.3142196,10.2742953 28.9597062,12.1191946 28.1789674,14.2220134 C27.3982285,12.1191946 26.0435163,10.2742953 24.111451,8.95288591 C20.4037864,6.42040268 15.5412166,6.41677852 11.2866172,8.48536913 C10.0941365,9.67671141 8.99251335,10.9657047 8.00878635,12.3412752 C7.23679525,13.4206711 6.40794362,14.6661745 6.08189021,15.9785235 C5.74132344,17.3450336 5.25124926,19.1790604 5.31546588,20.5616779 C5.42063798,22.8108725 6.79483383,24.4681208 8.60940059,25.657651 C9.05315134,25.95 13.8000119,29.6289262 13.3578516,29.8906711 C13.6930504,29.6919463 14.1155282,29.4501342 14.5859199,29.1992617 L14.5859199,29.6198658 C16.3078398,28.6034899 18.8102997,27.3579866 20.4858961,27.5528859 L20.5071691,27.5565101 C20.5554807,27.5619463 20.5946469,27.5836913 20.6409703,27.5927517 C21.1026142,27.7153691 21.5071988,27.9428859 21.8173472,28.3256376 C22.5338694,29.2083221 22.5980861,30.2281208 22.3485757,31.2191275 C22.5338694,31.0820134 22.6996795,30.9086577 22.8798042,30.7624832 C22.8601217,31.4448322 22.7068368,31.9628859 22.7068368,31.9628859 L22.3948991,32.4068456 C24.2325282,32.7589933 26.163003,32.9520805 28.1610742,32.9520805 L28.1718101,32.9520805 C28.1859258,32.9520805 28.1897033,32.9520805 28.1897033,32.9520805 C30.1947329,32.9520805 32.1252077,32.7589933 33.9630356,32.4068456 L33.6510979,31.9628859 C33.6510979,31.9628859 33.4978131,31.4448322 33.4781306,30.7624832 C33.6580564,30.9086577 33.8238665,31.0820134 34.0093591,31.2191275 C33.7598487,30.2281208 33.8238665,29.2083221 34.5405875,28.3256376 C34.8505371,27.9428859 35.2553205,27.7153691 35.7169644,27.5927517 C35.7632878,27.5836913 35.8026528,27.5619463 35.8507656,27.5565101 L35.8720386,27.5528859 C37.5474362,27.3579866 40.050095,28.6034899 41.7720148,29.6198658 L41.7720148,29.1992617 C42.2424065,29.4501342 42.6648843,29.6919463 43.0000831,29.8906711 C42.5579228,29.6289262 47.3045846,25.95 47.7483353,25.657651 C49.5629021,24.4681208 50.9372967,22.8108725 51.0424688,20.5616779 C51.1066855,19.1790604 50.6164125,17.3450336 50.2758457,15.9785235" id="Fill-16" fill="#EDEDEA"></path>
            <path d="M28.1789674,36.719396 C21.2684243,36.719396 15.6696499,43.701745 15.6696499,52.3157718 C15.6696499,54.0360403 15.9014659,55.6842282 16.3132077,57.2311409 C17.0688961,57.4602685 17.8176261,57.7075168 18.592997,57.8899329 C21.7068071,58.626443 24.942092,58.9928859 28.1789674,58.9928859 C31.4158427,58.9928859 34.6511276,58.626443 37.7651365,57.8899329 C38.5403086,57.7075168 39.2890386,57.4602685 40.044727,57.2311409 C40.4564688,55.6842282 40.6882849,54.0360403 40.6882849,52.3157718 C40.6882849,43.701745 35.0895104,36.719396 28.1789674,36.719396" id="Fill-17" fill="#EDEDEA"></path>
            <path d="M29.5905401,22.5833557 C29.2823798,22.6846309 28.9597062,22.7351678 28.6370326,22.7621477 C28.6620831,22.7061745 28.7082077,22.6628859 28.7082077,22.5996644 L28.7082077,21.3469128 C28.7654659,21.3018121 28.8278932,21.2712081 28.8775964,21.2097987 L29.8472077,20.0220805 C30.2305193,19.5527517 30.0505935,19.1681879 29.4479911,19.1681879 L26.9099436,19.1681879 C26.3073412,19.1681879 26.1274154,19.5527517 26.5105282,20.0220805 L27.4801395,21.2097987 C27.5658279,21.3163087 27.6692107,21.3902013 27.7743828,21.4479866 L27.7743828,22.5996644 C27.7743828,22.6628859 27.8189169,22.7061745 27.842178,22.7621477 C27.5193056,22.7331544 27.1986202,22.6826174 26.8920504,22.5833557 C26.4962136,22.455302 25.6780979,21.9751007 25.5657685,22.7206711 C25.5657685,22.7657718 25.5657685,22.8108725 25.5657685,22.8559732 C25.5657685,24.3489262 26.7566588,25.5583893 28.237816,25.5620134 L28.2447745,25.5620134 C29.7261306,25.5583893 30.9166231,24.3489262 30.9166231,22.8559732 C30.9166231,22.8108725 30.9166231,22.7657718 30.9166231,22.7206711 C30.8044926,21.9751007 29.9863769,22.455302 29.5905401,22.5833557" id="Fill-18" fill="#121716"></path>
            <path d="M28.1789674,1.90389262 C20.837,1.90389262 13.7606469,5.90597315 8.76626409,12.8844966 C2.47780712,21.6628188 0.312136499,32.6740268 3.24959941,40.9379195 C5.94808902,48.5375839 12.5932166,54.6932215 20.5910682,57.0020134 C25.4892255,58.417047 30.8704985,58.417047 35.7650772,57.0020134 C43.7647181,54.6932215 50.4096469,48.5375839 53.1081365,40.9379195 C56.0457982,32.6740268 53.8801276,21.6628188 47.5934599,12.8844966 C42.597089,5.90597315 35.5209347,1.90389262 28.1789674,1.90389262 Z M28.1789674,59.917047 C25.4232196,59.917047 22.7014688,59.5344966 20.0900593,58.7780537 C11.4078932,56.2725503 4.47051039,49.8374497 1.53125816,41.5626846 C-2.27422255,30.8544966 2.01079525,19.1663758 7.28868546,11.7978523 C12.6305935,4.33530201 20.2453323,0.0555704698 28.1789674,0.0555704698 C36.1126024,0.0555704698 43.7273412,4.33530201 49.0710386,11.7978523 C54.3471395,19.1663758 58.6321573,30.8544966 54.8266766,41.5626846 C51.8874243,49.8374497 44.9500415,56.2725503 36.2660861,58.7780537 C33.6564659,59.5344966 30.9345163,59.917047 28.1789674,59.917047 L28.1789674,59.917047 Z" id="Fill-19" fill="#121716"></path>
            <path d="M20.8459466,11.8789933 C20.0759436,11.4583893 19.2168724,11.2453691 18.2915964,11.2453691 C15.7106053,11.2453691 13.1403501,13.440604 11.8800742,14.917047 C9.76092582,17.3991946 7.80023145,22.3920805 11.8534332,24.1051007 C13.3186855,24.7244295 14.9334451,24.9120805 16.5092374,24.9408725 C18.5216231,24.9805369 20.6729792,24.9338255 22.2612967,23.4968456 C23.8724777,22.0383221 24.132724,19.6556376 23.9830178,17.5868456 C23.7887774,14.9007383 22.6746291,12.8718121 20.8459466,11.8789933" id="Fill-20" fill="#121716"></path>
            <path d="M20.9421721,16.1933557 C20.913543,15.8395973 20.5304303,15.4495973 20.3057715,15.2474497 C19.8049614,14.8051007 19.1649822,14.5596644 18.5001513,14.5596644 C18.2900059,14.5596644 18.0742938,14.5830201 17.855003,14.6301342 C17.0066677,14.8105369 16.2935252,15.3285906 15.8996766,16.0524161 C15.7499703,16.3268456 15.495092,16.8738926 15.5608991,17.1861745 C15.6161691,17.4461074 15.8587211,17.624698 16.1064421,17.6697987 C16.4360742,17.7312081 16.5645074,17.5741611 16.7213709,17.303557 C16.7515905,17.2510067 16.7835994,17.1968456 16.8193858,17.1392617 C17.2969347,16.3900671 17.970911,15.9785235 18.7176528,15.9785235 C19.1365519,15.9785235 19.3914303,16.1011409 19.7711632,16.3558389 C20.0206736,16.5237584 20.2934451,16.8612081 20.6320237,16.680604 C20.8761662,16.5489262 20.9564866,16.3773826 20.9421721,16.1933557" id="Fill-21" fill="#FFFFFE"></path>
            <path d="M35.5119881,11.8789933 C36.2819911,11.4583893 37.1410623,11.2453691 38.0661395,11.2453691 C40.6473294,11.2453691 43.2173858,13.440604 44.4776617,14.917047 C46.5970089,17.3991946 48.5577033,22.3920805 44.5045015,24.1051007 C43.0392493,24.7244295 41.4242908,24.9120805 39.8486973,24.9408725 C37.8363116,24.9805369 35.6849555,24.9338255 34.096638,23.4968456 C32.4852582,22.0383221 32.2250119,19.6556376 32.3747181,17.5868456 C32.5691573,14.9007383 33.6831068,12.8718121 35.5119881,11.8789933" id="Fill-22" fill="#121716"></path>
            <path d="M35.4155638,16.1933557 C35.4441929,15.8395973 35.8275045,15.4495973 36.0519644,15.2474497 C36.5529733,14.8051007 37.1927537,14.5596644 37.8575846,14.5596644 C38.0679288,14.5596644 38.2836409,14.5830201 38.5029318,14.6301342 C39.3512671,14.8105369 40.0644095,15.3285906 40.4582582,16.0524161 C40.6079644,16.3268456 40.8628427,16.8738926 40.7970356,17.1861745 C40.7415668,17.4461074 40.4994125,17.624698 40.2512938,17.6697987 C39.9216617,17.7312081 39.7934273,17.5741611 39.6365638,17.303557 C39.6061454,17.2510067 39.5741365,17.1968456 39.538549,17.1392617 C39.0608012,16.3900671 38.3872226,15.9785235 37.6402819,15.9785235 C37.221184,15.9785235 36.9665045,16.1011409 36.5867715,16.3558389 C36.3372611,16.5237584 36.0644896,16.8612081 35.725911,16.680604 C35.4815697,16.5489262 35.4014481,16.3773826 35.4155638,16.1933557" id="Fill-23" fill="#FFFFFE"></path>
            <path d="M10.0657062,33.0225503 C9.82335312,33.0225503 9.58080119,32.9251007 9.40087537,32.7320134 C9.05494065,32.3601342 9.07283383,31.7752349 9.44004154,31.4248993 C9.64859644,31.2263758 11.5202226,29.4610067 12.848095,28.8128859 C13.299003,28.5946309 13.8463353,28.784094 14.0654273,29.2443624 C14.2847181,29.7028188 14.0940564,30.255302 13.6393709,30.4771812 C12.7303976,30.9213423 11.2029169,32.2842282 10.6913709,32.7716779 C10.5148249,32.9395973 10.2901662,33.0225503 10.0657062,33.0225503" id="Fill-24" fill="#121716"></path>
            <path d="M20.9690119,27.1558389 C18.4502493,25.6216107 14.5270712,27.7586577 13.1689792,28.5980537 C12.0494629,28.0421477 11.0621573,27.2297315 10.1583531,26.3687919 C9.06925519,25.3326846 8.38474184,24.6809396 7.65768249,23.3198658 C7.48650445,23.0671812 7.21910089,22.8795302 6.89284866,22.8795302 C5.82522255,22.8795302 5.84311573,24.0239597 6.26718398,24.6990604 C7.5755727,26.7785235 9.06925519,28.125302 11.0887982,29.5006711 C11.6574036,29.887047 12.2580178,30.2444295 12.897997,30.5007383 C13.1759377,30.6126846 13.4986113,30.5838926 13.749911,30.4141611 C14.86227,29.6649664 18.3898101,27.7479866 20.0314095,28.7408054 C20.8298427,29.2262416 21.2558991,29.8942953 21.2968546,30.726443 C21.3700178,32.226443 20.182905,34.0495973 18.1206172,35.6055705 C16.0030593,37.2032215 12.2651751,37.6526174 9.03366766,36.7012752 C6.73240653,36.0243624 3.66849852,34.3600671 2.13545104,30.285906 C1.95731454,29.8057047 1.42429674,29.5675168 0.959074184,29.7515436 C0.486694362,29.9321477 0.251498516,30.4665101 0.431424332,30.9430872 C1.83603858,34.6779866 4.70948368,37.3530201 8.52391098,38.475906 C9.83210089,38.8620805 11.1993383,39.0497315 12.5361573,39.0497315 C15.081362,39.0497315 17.5144362,38.369396 19.2113056,37.0894631 C21.8012433,35.1344295 23.2255401,32.7825503 23.1185786,30.6344295 C23.0472047,29.1902013 22.2843591,27.9555705 20.9690119,27.1558389" id="Fill-25" fill="#121716"></path>
            <path d="M46.2922285,33.0225503 C46.5345816,33.0225503 46.7771335,32.9251007 46.9570593,32.7320134 C47.3027953,32.3601342 47.2849021,31.7752349 46.9178932,31.4248993 C46.7093383,31.2263758 44.8377122,29.4610067 43.5098398,28.8128859 C43.0589318,28.5946309 42.5117982,28.784094 42.2923086,29.2443624 C42.0732166,29.7028188 42.2638783,30.255302 42.718365,30.4771812 C43.6275371,30.9213423 45.1550178,32.2842282 45.6665638,32.7716779 C45.842911,32.9395973 46.0675697,33.0225503 46.2922285,33.0225503" id="Fill-26" fill="#121716"></path>
            <path d="M35.3889228,27.1558389 C37.9074866,25.6216107 41.8308635,27.7586577 43.1889555,28.5980537 C44.3084718,28.0421477 45.2959763,27.2297315 46.1993828,26.3687919 C47.2886795,25.3326846 47.9729941,24.6809396 48.700451,23.3198658 C48.8714303,23.0671812 49.1388338,22.8795302 49.4648872,22.8795302 C50.5325134,22.8795302 50.5150178,24.0239597 50.0907507,24.6990604 C48.782362,26.7785235 47.2886795,28.125302 45.2691365,29.5006711 C44.7003323,29.887047 44.0999169,30.2444295 43.4599377,30.5007383 C43.1817982,30.6126846 42.8593234,30.5838926 42.6078249,30.4141611 C41.4956647,29.6649664 37.9681246,27.7479866 36.3265252,28.7408054 C35.528092,29.2262416 35.1020356,29.8942953 35.0608813,30.726443 C34.9879169,32.226443 36.1750297,34.0495973 38.2373175,35.6055705 C40.3548754,37.2032215 44.0927596,37.6526174 47.3242671,36.7012752 C49.6255282,36.0243624 52.6894362,34.3600671 54.2222849,30.285906 C54.4004214,29.8057047 54.9334392,29.5675168 55.3988605,29.7515436 C55.8710415,29.9321477 56.1064362,30.4665101 55.9263116,30.9430872 C54.5218961,34.6779866 51.6486499,37.3530201 47.8340237,38.475906 C46.525635,38.8620805 45.1585964,39.0497315 43.8217774,39.0497315 C41.2763739,39.0497315 38.8432997,38.369396 37.1464303,37.0894631 C34.5564926,35.1344295 33.1323947,32.7825503 33.2393561,30.6344295 C33.3105312,29.1902013 34.0733769,27.9555705 35.3889228,27.1558389" id="Fill-27" fill="#121716"></path>
            <path d="M14.509178,45.9797315 C17.5003205,49.0087248 18.163362,53.2544295 15.9851662,55.4585235 C13.8069703,57.6644295 9.61459941,56.9981879 6.62365579,53.9673826 C3.63271217,50.9347651 2.96967062,46.6926846 5.1514451,44.4867785 C7.32606231,42.2792617 11.5184332,42.9489262 14.509178,45.9797315" id="Fill-28" fill="#828D8C"></path>
            <path d="M13.5021899,49.4925503 C15.1455786,51.1604698 15.4165608,53.5900671 14.103003,54.9221477 C12.787457,56.2546309 10.3846024,55.9838255 8.73942433,54.315906 C7.09245697,52.6461745 6.82167359,50.2145638 8.13702077,48.8822819 C9.45236795,47.5502013 11.8552226,47.8244295 13.5021899,49.4925503" id="Fill-29" fill="#EDEDEA"></path>
            <path d="M8.50243917,44.1094631 C7.39544807,44.1094631 6.46142433,44.4652349 5.79659347,45.1403356 C4.95362611,45.9924161 4.61663798,47.2830201 4.85024332,48.7739597 C5.09796439,50.3716107 5.95703561,51.983557 7.26900297,53.3140268 C9.78577745,55.866443 13.5948368,56.5757718 15.3400178,54.8049664 C16.1811958,53.9528859 16.5163947,52.664094 16.2845786,51.172953 C16.0350682,49.5736913 15.175997,47.961745 13.8640297,46.6332886 C12.3043412,45.0537584 10.3009021,44.1094631 8.50243917,44.1094631 Z M12.6305935,57.6841611 C10.3241632,57.6841611 7.90003561,56.5667114 5.97850742,54.6207383 C4.39555786,53.0178523 3.35477151,51.0412752 3.04641246,49.0610738 C2.72016024,46.9707383 3.2388635,45.1133557 4.50629674,43.8334228 C5.51865282,42.8045638 6.90000593,42.2611409 8.50243917,42.2611409 C10.8070801,42.2611409 13.2331958,43.3783893 15.1545252,45.3261745 C16.7374748,46.9292617 17.7782611,48.9022148 18.0866202,50.8842282 C18.4128724,52.9747651 17.8959585,54.8319463 16.6303145,56.1120805 C15.6143798,57.1407383 14.2312374,57.6841611 12.6305935,57.6841611 L12.6305935,57.6841611 Z" id="Fill-30" fill="#121716"></path>
            <path d="M41.8485579,45.9797315 C38.8576142,49.0087248 38.1945727,53.2544295 40.3727685,55.4585235 C42.5509644,57.6644295 46.7431365,56.9981879 49.7342789,53.9673826 C52.7252226,50.9347651 53.3882641,46.6926846 51.2064896,44.4867785 C49.0318724,42.2792617 44.8395015,42.9489262 41.8485579,45.9797315" id="Fill-31" fill="#828D8C"></path>
            <path d="M42.855546,49.4925503 C41.2123561,51.1604698 40.9411751,53.5900671 42.2551306,54.9221477 C43.5704777,56.2546309 45.9731335,55.9838255 47.6183116,54.315906 C49.2652789,52.6461745 49.5362611,50.2145638 48.2207151,48.8822819 C46.905368,47.5502013 44.5025134,47.8244295 42.855546,49.4925503" id="Fill-32" fill="#EDEDEA"></path>
            <path d="M42.493905,46.6332886 C41.1819377,47.961745 40.3228665,49.5736913 40.0731573,51.172953 C39.8415401,52.664094 40.1767389,53.9528859 41.0179169,54.8049664 C42.7628991,56.5757718 46.5719585,55.866443 49.0889318,53.3140268 C50.4007003,51.983557 51.2599703,50.3716107 51.5076914,48.7739597 C51.7410979,47.2830201 51.4043086,45.9924161 50.5611424,45.1403356 C49.8963116,44.4652349 48.9622878,44.1094631 47.8554955,44.1094631 C46.0570326,44.1094631 44.0535935,45.0537584 42.493905,46.6332886 Z M39.7274214,56.1120805 C38.4619763,54.8319463 37.9450623,52.9747651 38.2713145,50.8842282 C38.5794748,48.9022148 39.6206588,46.9292617 41.2034095,45.3261745 C43.1249377,43.3783893 45.5508546,42.2611409 47.8554955,42.2611409 C49.45773,42.2611409 50.8392819,42.8045638 51.851638,43.8334228 C53.1190712,45.1133557 53.6377745,46.9707383 53.3115223,49.0610738 C53.0031632,51.0412752 51.962178,53.0178523 50.3794273,54.6207383 C48.4578991,56.5667114 46.0335727,57.6841611 43.7273412,57.6841611 C42.1266973,57.6841611 40.7433561,57.1407383 39.7274214,56.1120805 L39.7274214,56.1120805 Z" id="Fill-33" fill="#121716"></path>
            <path d="M33.9059763,2.04463087 C33.9487211,1.90751678 33.9932552,1.77402685 34.0324214,1.62946309 C32.1359436,1.2090604 30.1806172,0.979731544 28.1789674,0.979731544 C26.1771187,0.979731544 24.2219911,1.2090604 22.3253145,1.62946309 C22.3646795,1.77402685 22.4092136,1.90751678 22.4519585,2.04463087 L21.4555074,2.22161074 L21.5944777,2.65127517 L21.6390119,2.98691275 C21.9296766,2.88402685 22.2380356,2.81718121 22.5678665,2.81718121 C23.0971068,2.81718121 23.6567656,3.03765101 24.0935579,3.33 C25.7369466,4.4490604 26.9401632,5.95812081 27.752911,7.66771812 C27.8437685,7.79939597 27.9757804,7.90409396 28.1628635,7.90409396 C28.3696291,7.90409396 28.517546,7.78147651 28.6068131,7.62986577 L28.6209288,7.62986577 C29.4356647,5.93657718 30.631724,4.44201342 32.2643769,3.33 C32.7009703,3.03765101 33.2606291,2.81718121 33.7900682,2.81718121 C34.1198991,2.81718121 34.4280593,2.88402685 34.718724,2.98691275 L34.7632582,2.65127517 L34.9022285,2.22161074 L33.9059763,2.04463087" id="Fill-34" fill="#121716"></path>
        </g>
    </g>
</svg>