<svg width="27" height="27" viewBox="0 0 27 27" fill="none" xmlns="http://www.w3.org/2000/svg">
<path fill-rule="evenodd" clip-rule="evenodd" d="M5.625 4.5C5.625 3.87868 6.12868 3.375 6.75 3.375H11.25C11.8713 3.375 12.375 3.87868 12.375 4.5V22.5C12.375 23.1213 11.8713 23.625 11.25 23.625H6.75C6.12868 23.625 5.625 23.1213 5.625 22.5V4.5ZM7.875 5.625V21.375H10.125V5.625H7.875Z" fill="#1F2D3D"/>
<path fill-rule="evenodd" clip-rule="evenodd" d="M14.625 4.5C14.625 3.87868 15.1287 3.375 15.75 3.375H20.25C20.8713 3.375 21.375 3.87868 21.375 4.5V22.5C21.375 23.1213 20.8713 23.625 20.25 23.625H15.75C15.1287 23.625 14.625 23.1213 14.625 22.5V4.5ZM16.875 5.625V21.375H19.125V5.625H16.875Z" fill="#1F2D3D"/>
</svg>
