<svg width="16" height="16" viewBox="0 0 16 16" fill="none" xmlns="http://www.w3.org/2000/svg">
<path fill-rule="evenodd" clip-rule="evenodd" d="M8 1.5C4.41015 1.5 1.5 4.41015 1.5 8C1.5 11.5899 4.41015 14.5 8 14.5C11.5899 14.5 14.5 11.5899 14.5 8C14.5 4.41015 11.5899 1.5 8 1.5ZM0 8C0 3.58172 3.58172 0 8 0C12.4183 0 16 3.58172 16 8C16 12.4183 12.4183 16 8 16C3.58172 16 0 12.4183 0 8ZM9 11C9 11.5523 8.55229 12 8 12C7.44772 12 7 11.5523 7 11C7 10.4477 7.44772 10 8 10C8.55229 10 9 10.4477 9 11ZM6.92082 6.08541C7.00133 5.92438 7.11032 5.78617 7.25977 5.68654C7.40453 5.59004 7.63124 5.5 8 5.5C8.27975 5.5 8.55291 5.58656 8.7375 5.725C8.90206 5.84842 9 6.01009 9 6.25C9 6.42662 8.95919 6.51381 8.92283 6.56835C8.87748 6.63639 8.79924 6.71162 8.64646 6.81349C8.57007 6.86441 8.48788 6.9139 8.38754 6.97411L8.38141 6.97779L8.38139 6.9778C8.28769 7.03402 8.17704 7.10041 8.06831 7.1729C7.84608 7.32107 7.58057 7.52712 7.37593 7.83412C7.14619 8.17878 7.23935 8.64442 7.58401 8.87417C7.92867 9.10391 8.39432 9.01075 8.62406 8.66609C8.66942 8.59803 8.74766 8.52279 8.90043 8.42093C8.97681 8.37001 9.059 8.32052 9.15933 8.26032L9.16554 8.25659L9.1656 8.25656C9.25926 8.20036 9.36986 8.134 9.47854 8.06154C9.70075 7.91339 9.96627 7.70737 10.1709 7.4004C10.3846 7.07994 10.5 6.69838 10.5 6.25C10.5 5.48991 10.1396 4.90158 9.6375 4.525C9.15542 4.16344 8.55358 4 8 4C7.36876 4 6.84547 4.15996 6.42772 4.43846C6.01467 4.71383 5.74866 5.07562 5.57918 5.41459C5.39393 5.78507 5.5441 6.23558 5.91459 6.42082C6.28507 6.60606 6.73558 6.45589 6.92082 6.08541Z" fill="#8492A6"/>
</svg>
