<?xml version="1.0" encoding="UTF-8"?>
<svg width="32px" height="32px" viewBox="0 0 32 32" version="1.1" xmlns="http://www.w3.org/2000/svg" xmlns:xlink="http://www.w3.org/1999/xlink">
    <!-- Generator: Sketch 48.2 (47327) - http://www.bohemiancoding.com/sketch -->
    <title>_ionicons_svg_ios-help-circle</title>
    <desc>Created with Sketch.</desc>
    <defs></defs>
    <g id="Page-1" stroke="none" stroke-width="1" fill="none" fill-rule="evenodd">
        <g id="_ionicons_svg_ios-help-circle" fill="#8492A6" fill-rule="nonzero">
            <path d="M16,0 C7.16153846,0 0,7.16153846 0,16 C0,24.8384615 7.16153846,32 16,32 C24.8384615,32 32,24.8384615 32,16 C32,7.16153846 24.8384615,0 16,0 Z M15.6692308,23.3846154 C14.7615385,23.3846154 14.0230769,22.6923077 14.0230769,21.8 C14.0230769,20.9153846 14.7615385,20.2153846 15.6692308,20.2153846 C16.5846154,20.2153846 17.3230769,20.9076923 17.3230769,21.8 C17.3230769,22.6923077 16.5923077,23.3846154 15.6692308,23.3846154 Z M18.7615385,15.9307692 C17.4230769,16.7076923 16.9692308,17.2769231 16.9692308,18.2615385 L16.9692308,18.8692308 L14.3,18.8692308 L14.2769231,18.2076923 C14.1461538,16.6230769 14.7,15.6384615 16.0923077,14.8230769 C17.3923077,14.0461538 17.9384615,13.5538462 17.9384615,12.6 C17.9384615,11.6461538 17.0153846,10.9461538 15.8692308,10.9461538 C14.7076923,10.9461538 13.8692308,11.7 13.8076923,12.8384615 L11.0769231,12.8384615 C11.1307692,10.3615385 12.9615385,8.60769231 16.0538462,8.60769231 C18.9384615,8.60769231 20.9230769,10.2076923 20.9230769,12.5076923 C20.9230769,14.0384615 20.1846154,15.0923077 18.7615385,15.9307692 Z" id="Shape"></path>
        </g>
    </g>
</svg>