<?xml version="1.0" encoding="UTF-8"?>
<svg width="32px" height="32px" viewBox="0 0 32 32" version="1.1" xmlns="http://www.w3.org/2000/svg" xmlns:xlink="http://www.w3.org/1999/xlink">
    <!-- Generator: Sketch 48.2 (47327) - http://www.bohemiancoding.com/sketch -->
    <title>_ionicons_svg_ios-settings</title>
    <desc>Created with Sketch.</desc>
    <defs></defs>
    <g id="Page-1" stroke="none" stroke-width="1" fill="none" fill-rule="evenodd">
        <g id="_ionicons_svg_ios-settings" fill="#8492A6" fill-rule="nonzero">
            <path d="M29.3583333,16 C29.3583333,14.25 30.45,12.7583333 32,12.1583333 C31.5916667,10.45 30.9166667,8.85 30.025,7.4 C29.4916667,7.63333333 28.925,7.75833333 28.35,7.75833333 C27.3,7.75833333 26.25,7.35833333 25.4416667,6.55833333 C24.2,5.31666667 23.925,3.49166667 24.5916667,1.975 C23.15,1.08333333 21.5416667,0.408333333 19.8416667,1.18423789e-15 C19.25,1.54166667 17.75,2.64166667 16,2.64166667 C14.25,2.64166667 12.75,1.54166667 12.1583333,0 C10.45,0.408333333 8.85,1.08333333 7.4,1.975 C8.075,3.48333333 7.79166667,5.31666667 6.55,6.55833333 C5.75,7.35833333 4.69166667,7.75833333 3.64166667,7.75833333 C3.06666667,7.75833333 2.5,7.64166667 1.96666667,7.4 C1.08333333,8.85833333 0.408333333,10.4583333 0,12.1666667 C1.54166667,12.7583333 2.64166667,14.25 2.64166667,16.0083333 C2.64166667,17.7583333 1.55,19.25 0.00833333333,19.85 C0.416666667,21.5583333 1.09166667,23.1583333 1.98333333,24.6083333 C2.51666667,24.375 3.08333333,24.2583333 3.65,24.2583333 C4.7,24.2583333 5.75,24.6583333 6.55833333,25.4583333 C7.79166667,26.6916667 8.075,28.525 7.40833333,30.0333333 C8.85833333,30.925 10.4666667,31.6 12.1666667,32.0083333 C12.7583333,30.4666667 14.25,29.375 16,29.375 C17.75,29.375 19.2416667,30.4666667 19.8333333,32.0083333 C21.5416667,31.6 23.1416667,30.925 24.5916667,30.0333333 C23.925,28.525 24.2083333,26.7 25.4416667,25.4583333 C26.2416667,24.6583333 27.2916667,24.2583333 28.35,24.2583333 C28.9166667,24.2583333 29.4916667,24.375 30.0166667,24.6083333 C30.9083333,23.1583333 31.5833333,21.55 31.9916667,19.85 C30.4583333,19.25 29.3583333,17.7583333 29.3583333,16 Z M16.075,22.6583333 C12.3833333,22.6583333 9.40833333,19.6666667 9.40833333,15.9916667 C9.40833333,12.3166667 12.3833333,9.325 16.075,9.325 C19.7666667,9.325 22.7416667,12.3166667 22.7416667,15.9916667 C22.7416667,19.6666667 19.7666667,22.6583333 16.075,22.6583333 Z" id="Shape"></path>
        </g>
    </g>
</svg>