<svg width="26" height="25" viewBox="0 0 26 25" fill="none" xmlns="http://www.w3.org/2000/svg">
<g clip-path="url(#clip0)">
<path fill-rule="evenodd" clip-rule="evenodd" d="M0 2.99997C0 1.94561 0.854729 1.09088 1.90909 1.09088H15.5454C16.5998 1.09088 17.4545 1.94561 17.4545 2.99997V14.4545C17.4545 15.5089 16.5998 16.3636 15.5454 16.3636H1.90909C0.854728 16.3636 0 15.5089 0 14.4545V2.99997ZM1.90909 2.72724C1.75847 2.72724 1.63636 2.84935 1.63636 2.99997V4.90906H3.81818V2.72724H1.90909ZM5.45454 2.72724V4.90906H7.63636V2.72724H5.45454ZM9.27272 2.72724V4.90906H15.8182V2.99997C15.8182 2.84935 15.6961 2.72724 15.5454 2.72724H9.27272ZM15.8182 6.54542H1.63636V14.4545C1.63636 14.6051 1.75847 14.7272 1.90909 14.7272H15.5454C15.6961 14.7272 15.8182 14.6051 15.8182 14.4545V6.54542Z" fill="#F9FAFC"/>
</g>
<rect x="5.81812" y="8" width="18.9091" height="14.5454" fill="#2E2E2E"/>
<path d="M10.1822 12.3637L8.93143 12.9891C7.91508 13.4972 7.27307 14.536 7.27307 15.6724V21.0001C7.27307 22.6569 8.61622 24.0001 10.2731 24.0001H21.7276C23.3845 24.0001 24.7276 22.6569 24.7276 21.0001V15.6724C24.7276 14.536 24.0856 13.4972 23.0692 12.9891L21.8185 12.3637" stroke="#F9FAFC" stroke-width="2"/>
<path d="M19.6369 13.091V12.4546C19.6369 10.7977 18.2937 9.45459 16.6369 9.45459H15.3641C13.7073 9.45459 12.3641 10.7977 12.3641 12.4546V13.091" stroke="#F9FAFC" stroke-width="2"/>
<circle cx="16.0005" cy="18.1818" r="2.63636" stroke="#F9FAFC" stroke-width="2"/>
<defs>
<clipPath id="clip0">
<rect width="17.4545" height="17.4545" fill="white"/>
</clipPath>
</defs>
</svg>
