<svg xmlns="http://www.w3.org/2000/svg" width="16" height="16" fill="none" viewBox="0 0 16 16">
<path fill="#fff" fill-rule="evenodd" d="M8 2.5c-1.645 0-3.123.722-4.131 1.869l1.204 1.204c.158.158.046.427-.177.427H1.25C1.112 6 1 5.888 1 5.75V2.104c0-.223.27-.335.427-.177l1.38 1.38C4.087 1.89 5.939 1 8 1c3.582 0 6.535 2.69 6.95 6.16.05.412-.244.786-.655.835-.412.049-.785-.245-.834-.656C13.135 4.613 10.814 2.5 8 2.5zM1.705 8.005c.412-.049.785.245.834.656C2.865 11.387 5.186 13.5 8 13.5c1.645 0 3.123-.722 4.131-1.869l-1.204-1.204c-.158-.158-.046-.427.177-.427h3.646c.138 0 .25.112.25.25v3.646c0 .223-.27.335-.427.177l-1.38-1.38C11.913 14.11 10.061 15 8 15c-3.582 0-6.535-2.69-6.95-6.16-.05-.412.244-.786.655-.835z" clip-rule="evenodd"/>
</svg>
