<svg width="35" height="34" viewBox="0 0 35 34" fill="none" xmlns="http://www.w3.org/2000/svg">
<path fill-rule="evenodd" clip-rule="evenodd" d="M0 4.125C0 2.67525 1.17525 1.5 2.625 1.5H21.375C22.8247 1.5 24 2.67525 24 4.125V19.875C24 21.3247 22.8247 22.5 21.375 22.5H2.625C1.17525 22.5 0 21.3247 0 19.875V4.125ZM2.625 3.75C2.41789 3.75 2.25 3.91789 2.25 4.125V6.75H5.25V3.75H2.625ZM7.5 3.75V6.75H10.5V3.75H7.5ZM12.75 3.75V6.75H21.75V4.125C21.75 3.91789 21.5821 3.75 21.375 3.75H12.75ZM21.75 9H2.25V19.875C2.25 20.0821 2.41789 20.25 2.625 20.25H21.375C21.5821 20.25 21.75 20.0821 21.75 19.875V9Z" fill="#1F2D3D"/>
<rect x="8" y="11" width="26" height="20" fill="#EFF2F7"/>
<path d="M14 17L11.6584 18.1708C10.642 18.679 10 19.7178 10 20.8541V30C10 31.6569 11.3431 33 13 33H31C32.6569 33 34 31.6569 34 30V20.8541C34 19.7178 33.358 18.679 32.3416 18.1708L30 17" stroke="#1F2D3D" stroke-width="2"/>
<path d="M27 18V16C27 14.3431 25.6569 13 24 13H20C18.3431 13 17 14.3431 17 16V18" stroke="#1F2D3D" stroke-width="2"/>
<circle cx="22" cy="25" r="4" stroke="#1F2D3D" stroke-width="2"/>
</svg>
