<svg width="36" height="34" viewBox="0 0 36 34" fill="none" xmlns="http://www.w3.org/2000/svg">
<path fill-rule="evenodd" clip-rule="evenodd" d="M3.70327 23.5447L4.85243 20.7735C5.202 20.9185 5.5877 21 6 21H9V24H6C5.18645 24 4.41072 23.8381 3.70327 23.5447ZM15 24V21H18C18.4123 21 18.798 20.9185 19.1476 20.7735L20.2967 23.5447C19.5893 23.8381 18.8135 24 18 24H15ZM24 9H21V6C21 5.5877 20.9185 5.202 20.7735 4.85244L23.5447 3.70327C23.8381 4.41072 24 5.18645 24 6V9ZM9 0H6C5.18645 0 4.41072 0.161917 3.70327 0.455283L4.85244 3.22646C5.202 3.0815 5.5877 3 6 3H9V0ZM0 15H3V18C3 18.4123 3.0815 18.798 3.22646 19.1476L0.455283 20.2967C0.161917 19.5893 0 18.8135 0 18V15ZM0 9H3V6C3 5.5877 3.0815 5.202 3.22646 4.85243L0.455283 3.70327C0.161917 4.41072 0 5.18645 0 6V9ZM15 0V3H18C18.4123 3 18.798 3.0815 19.1476 3.22646L20.2967 0.455283C19.5893 0.161917 18.8135 0 18 0H15ZM24 15H21V18C21 18.4123 20.9185 18.798 20.7735 19.1476L23.5447 20.2967C23.8381 19.5893 24 18.8135 24 18V15Z" fill="#1F2D3D"/>
<rect x="9" y="11" width="26" height="20" fill="#EFF2F7"/>
<path d="M15 17L12.6584 18.1708C11.642 18.679 11 19.7178 11 20.8541V30C11 31.6569 12.3431 33 14 33H32C33.6569 33 35 31.6569 35 30V20.8541C35 19.7178 34.358 18.679 33.3416 18.1708L31 17" stroke="#1F2D3D" stroke-width="2"/>
<path d="M28 18V16C28 14.3431 26.6569 13 25 13H21C19.3431 13 18 14.3431 18 16V18" stroke="#1F2D3D" stroke-width="2"/>
<circle cx="23" cy="25" r="4" stroke="#1F2D3D" stroke-width="2"/>
</svg>
