<svg
  width="20"
  height="20"
  viewBox="0 0 20 20"
  fill="none"
  xmlns="http://www.w3.org/2000/svg"
>
  <path
    fill-rule="evenodd"
    clip-rule="evenodd"
    d="M4.16669 3.33333C4.16669 2.8731 4.53978 2.5 5.00002 2.5H8.33335C8.79359 2.5 9.16669 2.8731 9.16669 3.33333V16.6667C9.16669 17.1269 8.79359 17.5 8.33335 17.5H5.00002C4.53978 17.5 4.16669 17.1269 4.16669 16.6667V3.33333Z"
    fill="#1F2D3D"
  />
  <path
    d="M10.8333 3.33333C10.8333 2.8731 11.2064 2.5 11.6666 2.5H15C15.4602 2.5 15.8333 2.8731 15.8333 3.33333V16.6667C15.8333 17.1269 15.4602 17.5 15 17.5H11.6666C11.2064 17.5 10.8333 17.1269 10.8333 16.6667V3.33333Z"
    fill="#1F2D3D"
  />
</svg>