<svg xmlns="http://www.w3.org/2000/svg" width="40" height="40" fill="none" viewBox="0 0 40 40">
    <path fill="#1F2D3D" fill-rule="evenodd" d="M20 6.25c-4.113 0-7.807 1.806-10.328 4.672l3.011 3.011c.394.394.115 1.067-.442 1.067H3.125c-.345 0-.625-.28-.625-.625V5.259c0-.557.673-.836 1.067-.442l3.45 3.45C10.216 4.726 14.846 2.5 20 2.5c8.956 0 16.338 6.726 17.375 15.402.123 1.029-.61 1.962-1.639 2.085-1.028.123-1.961-.611-2.084-1.64C32.837 11.535 27.034 6.25 20 6.25zM4.264 20.013c1.028-.123 1.961.611 2.084 1.64C7.163 28.465 12.966 33.75 20 33.75c4.113 0 7.806-1.806 10.328-4.672l-3.011-3.011c-.394-.394-.115-1.067.442-1.067h9.116c.345 0 .625.28.625.625v9.116c0 .557-.673.836-1.067.442l-3.45-3.45C29.784 35.273 25.152 37.5 20 37.5c-8.956 0-16.338-6.726-17.375-15.402-.123-1.029.61-1.962 1.639-2.085z" clip-rule="evenodd"/>
</svg>
