<svg width="16" height="16" viewBox="0 0 16 16" fill="none" xmlns="http://www.w3.org/2000/svg">
<path fill-rule="evenodd" clip-rule="evenodd" d="M10.561 1.49999C10.5573 1.50013 10.5538 1.50154 10.551 1.50399L3.28601 8.57099C3.25033 8.60578 3.22585 8.65045 3.21574 8.69925C3.20562 8.74806 3.21032 8.79877 3.22924 8.84488C3.24816 8.89099 3.28043 8.9304 3.3219 8.95804C3.36338 8.98567 3.41217 9.00028 3.46201 8.99999H6.75001C6.87306 9.00001 6.99422 9.03031 7.10279 9.08822C7.21137 9.14612 7.30403 9.22985 7.3726 9.33202C7.44117 9.43419 7.48356 9.55166 7.49601 9.67408C7.50846 9.7965 7.49061 9.9201 7.44401 10.034L5.73101 14.222L12.713 7.42899C12.7486 7.39425 12.7731 7.34968 12.7832 7.30097C12.7934 7.25226 12.7888 7.20163 12.77 7.15556C12.7512 7.10949 12.7191 7.07008 12.6777 7.04236C12.6364 7.01465 12.5878 6.99989 12.538 6.99999H9.25001C9.12455 7 9.00109 6.96854 8.89093 6.90848C8.78077 6.84842 8.68745 6.76169 8.61949 6.65622C8.55153 6.55075 8.51112 6.42992 8.50195 6.30479C8.49278 6.17966 8.51515 6.05423 8.56701 5.93999L10.575 1.52199L10.578 1.51599C10.5774 1.5127 10.5761 1.50961 10.574 1.50699C10.5725 1.50458 10.5704 1.50254 10.568 1.50099L10.56 1.49999H10.561ZM9.50401 0.429989C9.75731 0.184104 10.0885 0.0343268 10.4404 0.00649188C10.7923 -0.0213431 11.1429 0.0745095 11.4317 0.277516C11.7205 0.480523 11.9294 0.777956 12.0224 1.11851C12.1154 1.45907 12.0866 1.82139 11.941 2.14299L10.415 5.49999H12.538C14.108 5.49999 14.884 7.40899 13.758 8.50399L6.41801 15.646C6.18481 15.8728 5.87235 15.9998 5.54701 16H5.24501C5.03994 16 4.83803 15.9495 4.65706 15.8531C4.4761 15.7566 4.32165 15.6171 4.20732 15.4468C4.093 15.2766 4.02232 15.0808 4.00152 14.8768C3.98071 14.6728 4.01041 14.4668 4.08801 14.277L5.63301 10.5H3.46201C1.89201 10.5 1.11601 8.59099 2.24201 7.49599L9.50301 0.428989L9.50401 0.429989Z" fill="#1f2d3d"/>
</svg>
